<mxfile host="app.diagrams.net" agent="Mozilla/5.0 (Windows NT 10.0; Win64; x64) AppleWebKit/537.36 (KHTML, like Gecko) Chrome/138.0.0.0 Safari/537.36" version="28.0.9">
  <diagram name="Page-1" id="wfayM1I-EyayYDTcSW82">
    <mxGraphModel dx="4753" dy="2877" grid="1" gridSize="10" guides="1" tooltips="1" connect="1" arrows="1" fold="1" page="1" pageScale="1" pageWidth="850" pageHeight="1100" math="0" shadow="0">
      <root>
        <mxCell id="0" />
        <mxCell id="1" parent="0" />
        <mxCell id="BK8zFK1SqSR6lhZ8iY9F-14" value="Information system" style="verticalLabelPosition=bottom;verticalAlign=top;html=1;shape=mxgraph.basic.rect;fillColor2=none;strokeWidth=1;size=20;indent=5;" vertex="1" parent="1">
          <mxGeometry x="300" y="30" width="300" height="1030" as="geometry" />
        </mxCell>
        <mxCell id="BK8zFK1SqSR6lhZ8iY9F-1" value="user" style="shape=umlActor;verticalLabelPosition=bottom;verticalAlign=top;html=1;" vertex="1" parent="1">
          <mxGeometry x="170" y="460" width="30" height="60" as="geometry" />
        </mxCell>
        <mxCell id="BK8zFK1SqSR6lhZ8iY9F-2" value="&lt;font style=&quot;font-size: 22px;&quot;&gt;Use case diagram&lt;/font&gt;" style="text;html=1;align=center;verticalAlign=middle;resizable=0;points=[];autosize=1;strokeColor=none;fillColor=none;" vertex="1" parent="1">
          <mxGeometry x="20" y="10" width="200" height="40" as="geometry" />
        </mxCell>
        <mxCell id="BK8zFK1SqSR6lhZ8iY9F-6" value="Authentication" style="strokeWidth=2;html=1;shape=mxgraph.flowchart.start_1;whiteSpace=wrap;" vertex="1" parent="1">
          <mxGeometry x="340" y="440" width="100" height="60" as="geometry" />
        </mxCell>
        <mxCell id="BK8zFK1SqSR6lhZ8iY9F-8" style="edgeStyle=orthogonalEdgeStyle;rounded=0;orthogonalLoop=1;jettySize=auto;html=1;exitX=1;exitY=0.3333333333333333;exitDx=0;exitDy=0;exitPerimeter=0;entryX=0;entryY=0.5;entryDx=0;entryDy=0;entryPerimeter=0;" edge="1" parent="1" source="BK8zFK1SqSR6lhZ8iY9F-1" target="BK8zFK1SqSR6lhZ8iY9F-6">
          <mxGeometry relative="1" as="geometry">
            <Array as="points">
              <mxPoint x="200" y="470" />
            </Array>
          </mxGeometry>
        </mxCell>
        <mxCell id="BK8zFK1SqSR6lhZ8iY9F-9" value="LogIn" style="strokeWidth=2;html=1;shape=mxgraph.flowchart.start_1;whiteSpace=wrap;" vertex="1" parent="1">
          <mxGeometry x="340" y="340" width="100" height="60" as="geometry" />
        </mxCell>
        <mxCell id="BK8zFK1SqSR6lhZ8iY9F-10" value="" style="endArrow=block;dashed=1;endFill=0;endSize=12;html=1;rounded=0;exitX=0.5;exitY=1;exitDx=0;exitDy=0;exitPerimeter=0;entryX=0.5;entryY=0;entryDx=0;entryDy=0;entryPerimeter=0;" edge="1" parent="1" source="BK8zFK1SqSR6lhZ8iY9F-9" target="BK8zFK1SqSR6lhZ8iY9F-6">
          <mxGeometry width="160" relative="1" as="geometry">
            <mxPoint x="740" y="320" as="sourcePoint" />
            <mxPoint x="900" y="320" as="targetPoint" />
          </mxGeometry>
        </mxCell>
        <mxCell id="BK8zFK1SqSR6lhZ8iY9F-11" value="&amp;lt;extends&amp;gt;" style="edgeLabel;html=1;align=center;verticalAlign=middle;resizable=0;points=[];" vertex="1" connectable="0" parent="BK8zFK1SqSR6lhZ8iY9F-10">
          <mxGeometry x="-0.417" y="-6" relative="1" as="geometry">
            <mxPoint y="1" as="offset" />
          </mxGeometry>
        </mxCell>
        <mxCell id="BK8zFK1SqSR6lhZ8iY9F-12" value="SignUp" style="strokeWidth=2;html=1;shape=mxgraph.flowchart.start_1;whiteSpace=wrap;" vertex="1" parent="1">
          <mxGeometry x="340" y="540" width="100" height="60" as="geometry" />
        </mxCell>
        <mxCell id="BK8zFK1SqSR6lhZ8iY9F-13" value="" style="endArrow=block;dashed=1;endFill=0;endSize=12;html=1;rounded=0;exitX=0.5;exitY=0;exitDx=0;exitDy=0;exitPerimeter=0;entryX=0.5;entryY=1;entryDx=0;entryDy=0;entryPerimeter=0;" edge="1" parent="1" source="BK8zFK1SqSR6lhZ8iY9F-12" target="BK8zFK1SqSR6lhZ8iY9F-6">
          <mxGeometry width="160" relative="1" as="geometry">
            <mxPoint x="200" y="640" as="sourcePoint" />
            <mxPoint x="360" y="640" as="targetPoint" />
          </mxGeometry>
        </mxCell>
        <mxCell id="BK8zFK1SqSR6lhZ8iY9F-29" value="&amp;lt;extebtd&amp;gt;" style="edgeLabel;html=1;align=center;verticalAlign=middle;resizable=0;points=[];" vertex="1" connectable="0" parent="BK8zFK1SqSR6lhZ8iY9F-13">
          <mxGeometry x="-0.2754" y="-1" relative="1" as="geometry">
            <mxPoint as="offset" />
          </mxGeometry>
        </mxCell>
        <mxCell id="BK8zFK1SqSR6lhZ8iY9F-17" value="Administrator" style="shape=umlActor;verticalLabelPosition=bottom;verticalAlign=top;html=1;" vertex="1" parent="1">
          <mxGeometry x="680" y="320" width="30" height="60" as="geometry" />
        </mxCell>
        <mxCell id="BK8zFK1SqSR6lhZ8iY9F-18" style="edgeStyle=orthogonalEdgeStyle;rounded=0;orthogonalLoop=1;jettySize=auto;html=1;exitX=0;exitY=0.3333333333333333;exitDx=0;exitDy=0;exitPerimeter=0;entryX=1;entryY=0.5;entryDx=0;entryDy=0;entryPerimeter=0;" edge="1" parent="1" source="BK8zFK1SqSR6lhZ8iY9F-17" target="BK8zFK1SqSR6lhZ8iY9F-9">
          <mxGeometry relative="1" as="geometry" />
        </mxCell>
        <mxCell id="BK8zFK1SqSR6lhZ8iY9F-19" value="Manage events" style="strokeWidth=2;html=1;shape=mxgraph.flowchart.start_1;whiteSpace=wrap;" vertex="1" parent="1">
          <mxGeometry x="480" y="240" width="100" height="60" as="geometry" />
        </mxCell>
        <mxCell id="BK8zFK1SqSR6lhZ8iY9F-20" style="edgeStyle=orthogonalEdgeStyle;rounded=0;orthogonalLoop=1;jettySize=auto;html=1;exitX=0.25;exitY=0.1;exitDx=0;exitDy=0;exitPerimeter=0;entryX=0.972;entryY=0.626;entryDx=0;entryDy=0;entryPerimeter=0;" edge="1" parent="1" source="BK8zFK1SqSR6lhZ8iY9F-17" target="BK8zFK1SqSR6lhZ8iY9F-19">
          <mxGeometry relative="1" as="geometry" />
        </mxCell>
        <mxCell id="BK8zFK1SqSR6lhZ8iY9F-21" value="Manage users" style="strokeWidth=2;html=1;shape=mxgraph.flowchart.start_1;whiteSpace=wrap;" vertex="1" parent="1">
          <mxGeometry x="480" y="390" width="100" height="60" as="geometry" />
        </mxCell>
        <mxCell id="BK8zFK1SqSR6lhZ8iY9F-23" style="edgeStyle=orthogonalEdgeStyle;rounded=0;orthogonalLoop=1;jettySize=auto;html=1;entryX=0.91;entryY=0.28;entryDx=0;entryDy=0;entryPerimeter=0;" edge="1" parent="1" source="BK8zFK1SqSR6lhZ8iY9F-17" target="BK8zFK1SqSR6lhZ8iY9F-21">
          <mxGeometry relative="1" as="geometry">
            <Array as="points">
              <mxPoint x="571" y="370" />
            </Array>
          </mxGeometry>
        </mxCell>
        <mxCell id="BK8zFK1SqSR6lhZ8iY9F-24" value="Manage submitions" style="strokeWidth=2;html=1;shape=mxgraph.flowchart.start_1;whiteSpace=wrap;" vertex="1" parent="1">
          <mxGeometry x="480" y="680" width="100" height="60" as="geometry" />
        </mxCell>
        <mxCell id="BK8zFK1SqSR6lhZ8iY9F-26" style="edgeStyle=orthogonalEdgeStyle;rounded=0;orthogonalLoop=1;jettySize=auto;html=1;entryX=1;entryY=0.5;entryDx=0;entryDy=0;entryPerimeter=0;" edge="1" parent="1" source="BK8zFK1SqSR6lhZ8iY9F-17" target="BK8zFK1SqSR6lhZ8iY9F-24">
          <mxGeometry relative="1" as="geometry">
            <Array as="points">
              <mxPoint x="660" y="350" />
              <mxPoint x="660" y="500" />
            </Array>
          </mxGeometry>
        </mxCell>
        <mxCell id="BK8zFK1SqSR6lhZ8iY9F-27" value="Submit Idea" style="strokeWidth=2;html=1;shape=mxgraph.flowchart.start_1;whiteSpace=wrap;" vertex="1" parent="1">
          <mxGeometry x="340" y="260" width="100" height="60" as="geometry" />
        </mxCell>
        <mxCell id="BK8zFK1SqSR6lhZ8iY9F-28" style="edgeStyle=orthogonalEdgeStyle;rounded=0;orthogonalLoop=1;jettySize=auto;html=1;entryX=0;entryY=0.5;entryDx=0;entryDy=0;entryPerimeter=0;" edge="1" parent="1" source="BK8zFK1SqSR6lhZ8iY9F-1" target="BK8zFK1SqSR6lhZ8iY9F-27">
          <mxGeometry relative="1" as="geometry">
            <Array as="points">
              <mxPoint x="240" y="460" />
              <mxPoint x="240" y="290" />
            </Array>
          </mxGeometry>
        </mxCell>
        <mxCell id="BK8zFK1SqSR6lhZ8iY9F-30" value="Register for events" style="strokeWidth=2;html=1;shape=mxgraph.flowchart.start_1;whiteSpace=wrap;" vertex="1" parent="1">
          <mxGeometry x="340" y="617" width="100" height="60" as="geometry" />
        </mxCell>
        <mxCell id="BK8zFK1SqSR6lhZ8iY9F-31" style="edgeStyle=orthogonalEdgeStyle;rounded=0;orthogonalLoop=1;jettySize=auto;html=1;entryX=0.009;entryY=0.599;entryDx=0;entryDy=0;entryPerimeter=0;" edge="1" parent="1" source="BK8zFK1SqSR6lhZ8iY9F-1" target="BK8zFK1SqSR6lhZ8iY9F-30">
          <mxGeometry relative="1" as="geometry">
            <Array as="points">
              <mxPoint x="185" y="653" />
            </Array>
          </mxGeometry>
        </mxCell>
        <mxCell id="BK8zFK1SqSR6lhZ8iY9F-32" value="Browse/Search events" style="strokeWidth=2;html=1;shape=mxgraph.flowchart.start_1;whiteSpace=wrap;" vertex="1" parent="1">
          <mxGeometry x="340" y="190" width="100" height="60" as="geometry" />
        </mxCell>
        <mxCell id="BK8zFK1SqSR6lhZ8iY9F-33" style="edgeStyle=orthogonalEdgeStyle;rounded=0;orthogonalLoop=1;jettySize=auto;html=1;entryX=0;entryY=0.5;entryDx=0;entryDy=0;entryPerimeter=0;" edge="1" parent="1" source="BK8zFK1SqSR6lhZ8iY9F-1" target="BK8zFK1SqSR6lhZ8iY9F-32">
          <mxGeometry relative="1" as="geometry">
            <Array as="points">
              <mxPoint x="185" y="220" />
            </Array>
          </mxGeometry>
        </mxCell>
        <mxCell id="BK8zFK1SqSR6lhZ8iY9F-35" value="Manage news" style="strokeWidth=2;html=1;shape=mxgraph.flowchart.start_1;whiteSpace=wrap;" vertex="1" parent="1">
          <mxGeometry x="480" y="767" width="100" height="60" as="geometry" />
        </mxCell>
        <mxCell id="BK8zFK1SqSR6lhZ8iY9F-36" style="edgeStyle=orthogonalEdgeStyle;rounded=0;orthogonalLoop=1;jettySize=auto;html=1;entryX=1;entryY=0.5;entryDx=0;entryDy=0;entryPerimeter=0;" edge="1" parent="1" source="BK8zFK1SqSR6lhZ8iY9F-17" target="BK8zFK1SqSR6lhZ8iY9F-35">
          <mxGeometry relative="1" as="geometry">
            <Array as="points">
              <mxPoint x="680" y="587" />
            </Array>
          </mxGeometry>
        </mxCell>
        <mxCell id="BK8zFK1SqSR6lhZ8iY9F-37" value="Add event" style="strokeWidth=2;html=1;shape=mxgraph.flowchart.start_1;whiteSpace=wrap;" vertex="1" parent="1">
          <mxGeometry x="410" y="140" width="70" height="40" as="geometry" />
        </mxCell>
        <mxCell id="BK8zFK1SqSR6lhZ8iY9F-38" value="Delete event" style="strokeWidth=2;html=1;shape=mxgraph.flowchart.start_1;whiteSpace=wrap;" vertex="1" parent="1">
          <mxGeometry x="490" y="140" width="80" height="40" as="geometry" />
        </mxCell>
        <mxCell id="BK8zFK1SqSR6lhZ8iY9F-40" value="" style="endArrow=block;dashed=1;endFill=0;endSize=12;html=1;rounded=0;entryX=0.5;entryY=0;entryDx=0;entryDy=0;entryPerimeter=0;exitX=0.662;exitY=0.942;exitDx=0;exitDy=0;exitPerimeter=0;" edge="1" parent="1" source="BK8zFK1SqSR6lhZ8iY9F-37" target="BK8zFK1SqSR6lhZ8iY9F-19">
          <mxGeometry width="160" relative="1" as="geometry">
            <mxPoint x="370" y="170" as="sourcePoint" />
            <mxPoint x="530" y="170" as="targetPoint" />
          </mxGeometry>
        </mxCell>
        <mxCell id="BK8zFK1SqSR6lhZ8iY9F-41" value="&amp;lt;extends&amp;gt;" style="edgeLabel;html=1;align=center;verticalAlign=middle;resizable=0;points=[];" vertex="1" connectable="0" parent="BK8zFK1SqSR6lhZ8iY9F-40">
          <mxGeometry x="-0.2684" y="-1" relative="1" as="geometry">
            <mxPoint as="offset" />
          </mxGeometry>
        </mxCell>
        <mxCell id="BK8zFK1SqSR6lhZ8iY9F-42" value="" style="endArrow=block;dashed=1;endFill=0;endSize=12;html=1;rounded=0;exitX=0.5;exitY=1;exitDx=0;exitDy=0;exitPerimeter=0;entryX=0.643;entryY=0.085;entryDx=0;entryDy=0;entryPerimeter=0;" edge="1" parent="1" source="BK8zFK1SqSR6lhZ8iY9F-38" target="BK8zFK1SqSR6lhZ8iY9F-19">
          <mxGeometry width="160" relative="1" as="geometry">
            <mxPoint x="450" y="280" as="sourcePoint" />
            <mxPoint x="610" y="280" as="targetPoint" />
          </mxGeometry>
        </mxCell>
        <mxCell id="BK8zFK1SqSR6lhZ8iY9F-43" value="&amp;lt;extents&amp;gt;" style="edgeLabel;html=1;align=center;verticalAlign=middle;resizable=0;points=[];" vertex="1" connectable="0" parent="BK8zFK1SqSR6lhZ8iY9F-42">
          <mxGeometry x="-0.2903" y="-2" relative="1" as="geometry">
            <mxPoint as="offset" />
          </mxGeometry>
        </mxCell>
        <mxCell id="BK8zFK1SqSR6lhZ8iY9F-44" value="Inserting event info" style="strokeWidth=2;html=1;shape=mxgraph.flowchart.start_1;whiteSpace=wrap;" vertex="1" parent="1">
          <mxGeometry x="320" y="50" width="100" height="60" as="geometry" />
        </mxCell>
        <mxCell id="BK8zFK1SqSR6lhZ8iY9F-45" value="" style="endArrow=block;dashed=1;endFill=0;endSize=12;html=1;rounded=0;exitX=0.855;exitY=0.855;exitDx=0;exitDy=0;exitPerimeter=0;entryX=0.145;entryY=0.145;entryDx=0;entryDy=0;entryPerimeter=0;" edge="1" parent="1" source="BK8zFK1SqSR6lhZ8iY9F-44" target="BK8zFK1SqSR6lhZ8iY9F-37">
          <mxGeometry width="160" relative="1" as="geometry">
            <mxPoint x="400" y="120" as="sourcePoint" />
            <mxPoint x="560" y="120" as="targetPoint" />
          </mxGeometry>
        </mxCell>
        <mxCell id="BK8zFK1SqSR6lhZ8iY9F-46" value="&amp;lt;includes&amp;gt;" style="edgeLabel;html=1;align=center;verticalAlign=middle;resizable=0;points=[];" vertex="1" connectable="0" parent="BK8zFK1SqSR6lhZ8iY9F-45">
          <mxGeometry x="-0.2415" y="3" relative="1" as="geometry">
            <mxPoint as="offset" />
          </mxGeometry>
        </mxCell>
        <mxCell id="BK8zFK1SqSR6lhZ8iY9F-47" value="Add news" style="strokeWidth=2;html=1;shape=mxgraph.flowchart.start_1;whiteSpace=wrap;" vertex="1" parent="1">
          <mxGeometry x="430" y="887" width="70" height="40" as="geometry" />
        </mxCell>
        <mxCell id="BK8zFK1SqSR6lhZ8iY9F-48" value="Delete news" style="strokeWidth=2;html=1;shape=mxgraph.flowchart.start_1;whiteSpace=wrap;" vertex="1" parent="1">
          <mxGeometry x="510" y="900" width="80" height="40" as="geometry" />
        </mxCell>
        <mxCell id="BK8zFK1SqSR6lhZ8iY9F-49" value="Inserting news info" style="strokeWidth=2;html=1;shape=mxgraph.flowchart.start_1;whiteSpace=wrap;" vertex="1" parent="1">
          <mxGeometry x="340" y="960" width="100" height="60" as="geometry" />
        </mxCell>
        <mxCell id="BK8zFK1SqSR6lhZ8iY9F-50" value="" style="endArrow=block;dashed=1;endFill=0;endSize=12;html=1;rounded=0;exitX=0.5;exitY=0;exitDx=0;exitDy=0;exitPerimeter=0;entryX=0.275;entryY=0.93;entryDx=0;entryDy=0;entryPerimeter=0;" edge="1" parent="1" source="BK8zFK1SqSR6lhZ8iY9F-47" target="BK8zFK1SqSR6lhZ8iY9F-35">
          <mxGeometry width="160" relative="1" as="geometry">
            <mxPoint x="410" y="630" as="sourcePoint" />
            <mxPoint x="570" y="630" as="targetPoint" />
          </mxGeometry>
        </mxCell>
        <mxCell id="BK8zFK1SqSR6lhZ8iY9F-51" value="&amp;lt;extends&amp;gt;" style="edgeLabel;html=1;align=center;verticalAlign=middle;resizable=0;points=[];" vertex="1" connectable="0" parent="BK8zFK1SqSR6lhZ8iY9F-50">
          <mxGeometry x="-0.1484" y="-5" relative="1" as="geometry">
            <mxPoint as="offset" />
          </mxGeometry>
        </mxCell>
        <mxCell id="BK8zFK1SqSR6lhZ8iY9F-52" value="" style="endArrow=block;dashed=1;endFill=0;endSize=12;html=1;rounded=0;exitX=0.5;exitY=0;exitDx=0;exitDy=0;exitPerimeter=0;entryX=0.5;entryY=1;entryDx=0;entryDy=0;entryPerimeter=0;" edge="1" parent="1" source="BK8zFK1SqSR6lhZ8iY9F-48" target="BK8zFK1SqSR6lhZ8iY9F-35">
          <mxGeometry width="160" relative="1" as="geometry">
            <mxPoint x="530" y="660" as="sourcePoint" />
            <mxPoint x="520" y="620" as="targetPoint" />
          </mxGeometry>
        </mxCell>
        <mxCell id="BK8zFK1SqSR6lhZ8iY9F-53" value="&amp;lt;extends&amp;gt;" style="edgeLabel;html=1;align=center;verticalAlign=middle;resizable=0;points=[];" vertex="1" connectable="0" parent="BK8zFK1SqSR6lhZ8iY9F-52">
          <mxGeometry x="-0.1042" y="1" relative="1" as="geometry">
            <mxPoint x="-1" y="-1" as="offset" />
          </mxGeometry>
        </mxCell>
        <mxCell id="BK8zFK1SqSR6lhZ8iY9F-54" value="" style="endArrow=block;dashed=1;endFill=0;endSize=12;html=1;rounded=0;exitX=0.5;exitY=0;exitDx=0;exitDy=0;exitPerimeter=0;entryX=0.145;entryY=0.855;entryDx=0;entryDy=0;entryPerimeter=0;" edge="1" parent="1" source="BK8zFK1SqSR6lhZ8iY9F-49" target="BK8zFK1SqSR6lhZ8iY9F-47">
          <mxGeometry width="160" relative="1" as="geometry">
            <mxPoint x="390" y="710" as="sourcePoint" />
            <mxPoint x="550" y="710" as="targetPoint" />
          </mxGeometry>
        </mxCell>
        <mxCell id="BK8zFK1SqSR6lhZ8iY9F-55" value="&amp;lt;includes&amp;gt;" style="edgeLabel;html=1;align=center;verticalAlign=middle;resizable=0;points=[];" vertex="1" connectable="0" parent="BK8zFK1SqSR6lhZ8iY9F-54">
          <mxGeometry x="-0.1494" y="-1" relative="1" as="geometry">
            <mxPoint as="offset" />
          </mxGeometry>
        </mxCell>
      </root>
    </mxGraphModel>
  </diagram>
</mxfile>
